<?xml version="1.0" encoding="utf-8"?>
<!-- Generator: Adobe Illustrator 24.0.3, SVG Export Plug-In . SVG Version: 6.00 Build 0)  -->
<svg version="1.1" xmlns="http://www.w3.org/2000/svg" xmlns:xlink="http://www.w3.org/1999/xlink" x="0px" y="0px"
	 viewBox="0 0 966.24 238.25" style="enable-background:new 0 0 966.24 238.25;" xml:space="preserve">
<style type="text/css">
	.st0{fill:#392390;}
	.st1{fill:#FF6442;}
	.st2{fill:#FFBA20;}
	.st3{clip-path:url(#SVGID_2_);}
	.st4{fill:#FFCF63;}
	.st5{fill:#E1E1E1;}
	.st6{fill:#FFFFFF;}
	.st7{fill:#FFEEC7;}
	.st8{fill:none;stroke:#FF6442;stroke-miterlimit:10;}
	.st9{fill:none;stroke:#392390;stroke-width:5;stroke-linecap:round;stroke-miterlimit:10;}
	.st10{fill:none;stroke:#FFFFFF;stroke-width:5;stroke-linecap:round;stroke-miterlimit:10;}
	.st11{fill:none;stroke:#392390;stroke-width:1.5;stroke-linecap:round;stroke-miterlimit:10;}
	.st12{fill:none;stroke:#FFFFFF;stroke-width:1.5;stroke-linecap:round;stroke-miterlimit:10;}
	.st13{fill:none;stroke:#FF6442;stroke-width:5;stroke-miterlimit:10;}
	.st14{clip-path:url(#SVGID_4_);}
	.st15{fill:none;stroke:#969696;stroke-miterlimit:10;}
	.st16{clip-path:url(#SVGID_6_);}
	.st17{clip-path:url(#SVGID_8_);}
	.st18{clip-path:url(#SVGID_10_);}
</style>
<g id="GRID">
</g>
<g id="Layer_2">
	<path class="st1" d="M46.14,112.7l19.62-8.13c1.05-0.44,2.18-0.66,3.33-0.66H73c1.68,0,3.04,1.36,3.04,3.04v18.68
		c0,2.4-1.95,4.35-4.35,4.35H47.8c-2.4,0-4.35-1.95-4.35-4.35v-8.92C43.45,114.95,44.51,113.37,46.14,112.7z M56.49,3.05
		c0-1.74-1.46-3.14-3.2-3.04C19.52,1.86,0.03,26.75,0.03,57.21L0,231.6c0,2.4,1.95,4.35,4.35,4.35h3.48c0.57,0,1.14-0.11,1.66-0.33
		l20.42-8.46c1.62-0.67,2.68-2.26,2.68-4.01v-121.1v-58.3c0-15.91,9.05-29.69,22.27-36.51c1-0.52,1.63-1.56,1.63-2.69V3.05z
		 M96.24,14.88C93.3,7.87,86.39,2.94,78.31,2.9C67.8,2.85,58.97,11.37,58.67,21.88c-0.08,2.82,0.44,5.52,1.44,7.96
		c0.92,2.24,3.47,3.33,5.7,2.4l28.09-11.64C96.14,19.68,97.18,17.11,96.24,14.88z M577.77,103.28c0-1.74-1.46-3.14-3.2-3.04
		c-33.77,1.85-53.26,26.75-53.26,57.21l-0.03,74.16c0,2.4,1.95,4.35,4.35,4.35h3.48c0.57,0,1.14-0.11,1.66-0.33l20.42-8.46
		c1.62-0.67,2.68-2.26,2.68-4.01v-19.86v-59.3c0-15.91,9.05-29.69,22.27-36.51c1-0.52,1.63-1.56,1.63-2.69V103.28z M617.53,115.11
		c-2.95-7.01-9.86-11.94-17.93-11.98c-10.52-0.05-19.34,8.47-19.64,18.98c-0.08,2.82,0.44,5.52,1.44,7.96
		c0.92,2.24,3.47,3.33,5.7,2.4l28.09-11.64C617.43,119.92,618.46,117.34,617.53,115.11z M144.82,2.47h-3.48
		c-0.57,0-1.14,0.11-1.66,0.33l-19.33,8.01c-1.62,0.67-2.68,2.26-2.68,4.01v165.97c0,28.45,20.73,52.06,47.91,56.55
		c1.58,0.26,3.02-0.98,3.02-2.58v-1.59c0-0.88-0.46-1.7-1.19-2.19c-11-7.37-18.24-19.91-18.24-34.14V6.81
		C149.17,4.41,147.22,2.47,144.82,2.47z M252.14,233.09c0,2.67-2.38,4.73-5.02,4.3c-31.97-5.22-56.44-33.96-56.44-68.67
		s24.46-63.45,56.44-68.67c2.63-0.43,5.02,1.63,5.02,4.3v9.05c0,1.99-1.36,3.72-3.29,4.21c-22.02,5.6-26.52,32.67-26.52,51.28
		s4.5,45.68,26.52,51.28c1.93,0.49,3.29,2.22,3.29,4.21V233.09z M263,104.35v9.05c0,1.99,1.36,3.72,3.29,4.21
		c22.02,5.6,26.52,32.67,26.52,51.28s-4.5,45.68-26.52,51.28c-1.93,0.49-3.29,2.22-3.29,4.21v8.72c0,2.67,2.38,4.73,5.02,4.3
		c31.97-5.22,56.44-33.96,56.44-68.67s-24.46-63.45-56.44-68.67C265.39,99.62,263,101.68,263,104.35z M676.3,52.43
		c0,9.18-7.44,16.62-16.62,16.62s-16.62-7.44-16.62-16.62s7.44-16.62,16.62-16.62S676.3,43.25,676.3,52.43z M675.3,223.7V106.84
		c0-2.4-1.95-4.35-4.35-4.35h-22.54c-2.4,0-4.35,1.95-4.35,4.35V231.6c0,2.4,1.95,4.35,4.35,4.35h3.48c0.57,0,1.14-0.11,1.66-0.33
		l19.06-7.9C674.24,227.05,675.3,225.46,675.3,223.7z M477.32,227.72l-19.06,7.9c-0.53,0.22-1.09,0.33-1.66,0.33h-3.48
		c-2.4,0-4.35-1.95-4.35-4.35V106.84c0-2.4,1.95-4.35,4.35-4.35h22.54c2.4,0,4.35,1.95,4.35,4.35V223.7
		C480,225.46,478.94,227.05,477.32,227.72z M357.82,190.27c0,25.98,21.25,48.05,47.24,47.98c12.07-0.03,23.07-4.6,31.38-12.09
		c0.93-0.83,1.46-2.01,1.46-3.26v-6.37c0-2.3-2.47-3.79-4.48-2.68c-4.21,2.33-9.05,3.67-14.2,3.71c-16.58,0.1-29.9-13.73-29.9-30.31
		l0-80.4c0-2.4-1.95-4.35-4.35-4.35h-22.81c-2.4,0-4.35,1.95-4.35,4.35L357.82,190.27z M842.1,15.71c0-1.74,1.04-3.32,2.65-4
		l19.41-8.22c0.53-0.22,1.09-0.33,1.66-0.33h3.48c2.4,0,4.35,1.95,4.35,4.35v215.86c0,1.76-1.06,3.34-2.68,4.01l-19.88,8.23
		c-0.53,0.22-1.09,0.33-1.66,0.33h-2.98c-2.4,0-4.34-1.95-4.34-4.34V15.71z M939.08,235.94h3.48c0.57,0,1.14-0.11,1.66-0.33
		l19.33-8.01c1.62-0.67,2.68-2.26,2.68-4.01v-70.41c0-27.46-21.82-50.39-49.27-50.77c-11.54-0.16-22.21,3.6-30.74,10.03
		c-1.1,0.83-1.74,2.12-1.74,3.49v8.85c0,2.29,2.41,3.72,4.45,2.69c4.16-2.09,8.84-3.28,13.8-3.34c17.6-0.19,31.99,14.66,31.99,32.26
		v75.21C934.73,234,936.68,235.94,939.08,235.94z M153.39,51.73 M796.65,123.74l-22.62,9.37c-2.12,0.88-4.57-0.04-5.58-2.11
		c-1.26-2.58-1.87-5.54-1.6-8.67c0.67-8.04,7.21-14.53,15.26-15.15c7.83-0.6,14.62,4.24,17.01,11.14
		C799.86,120.49,798.77,122.87,796.65,123.74z M780.6,160.97c-5.89-2.62-14.12-6.47-19.1-8.82c-29.79-14.06-20.75-46.2,3.95-45.97
		c1.69,0.02,3.07-1.34,3.07-3.04v-0.65c0-1.59-1.22-2.91-2.8-3.04c-2.21-0.18-4.45-0.27-6.71-0.27c-5.54,0-10.96,0.44-16.14,1.56
		c-16.11,3.48-29.22,19.02-29.22,34.86c0,18.34,16.38,30.62,22.39,33.72c6.84,3.53,28.14,14.48,28.14,14.48
		c22.9,9.91,13.79,40.34-19.02,36.29c-6.75-0.83-15.66-2.54-22.15-5.98c-2.17-1.15-4.83-0.61-6.05,1.51l-2.62,4.53
		c-1.18,2.04-0.51,4.63,1.49,5.88c12.28,7.7,27.16,12.21,43.19,12.21c13.95,0,50.31-5.51,50.31-40.07
		C809.32,172.67,784.48,162.7,780.6,160.97z"/>
</g>
<g id="Layer_3">
</g>
<g id="Layer_4">
</g>
</svg>
